<?xml version="1.0" encoding="UTF-8" standalone="no"?>
<svg
   xmlns:dc="http://purl.org/dc/elements/1.1/"
   xmlns:cc="http://creativecommons.org/ns#"
   xmlns:rdf="http://www.w3.org/1999/02/22-rdf-syntax-ns#"
   xmlns:svg="http://www.w3.org/2000/svg"
   xmlns="http://www.w3.org/2000/svg"
   xmlns:sodipodi="http://sodipodi.sourceforge.net/DTD/sodipodi-0.dtd"
   xmlns:inkscape="http://www.inkscape.org/namespaces/inkscape"
   version="1.1"
   id="Capa_1"
   x="0px"
   y="0px"
   viewBox="0 0 512 512"
   style="enable-background:new 0 0 512 512;"
   xml:space="preserve"
   sodipodi:docname="test_minimize.svg"
   inkscape:version="1.0.1 (3bc2e813f5, 2020-09-07)"><metadata
   id="metadata59"><rdf:RDF><cc:Work
       rdf:about=""><dc:format>image/svg+xml</dc:format><dc:type
         rdf:resource="http://purl.org/dc/dcmitype/StillImage" /><dc:title></dc:title></cc:Work></rdf:RDF></metadata><defs
   id="defs57">
	

		
	
			
			
			
			
			
			
			
			
		</defs><sodipodi:namedview
   pagecolor="#ffffff"
   bordercolor="#666666"
   borderopacity="1"
   objecttolerance="10"
   gridtolerance="10"
   guidetolerance="10"
   inkscape:pageopacity="0"
   inkscape:pageshadow="2"
   inkscape:window-width="1920"
   inkscape:window-height="1017"
   id="namedview55"
   showgrid="false"
   inkscape:zoom="1"
   inkscape:cx="75.877173"
   inkscape:cy="373.32988"
   inkscape:window-x="-8"
   inkscape:window-y="-8"
   inkscape:window-maximized="1"
   inkscape:current-layer="Capa_1" />
<polygon
   points="0,384 32,384 32,32 383.2,32 383.2,0 0,0 "
   id="polygon2"
   transform="scale(0.75)" /><polygon
   points="128.8,480 128.8,512 512,512 512,128 480,128 480,480 "
   id="polygon4"
   transform="matrix(0.75,0,0,0.75,128.1,129)" /><polygon
   points="240,384 240,272 128,272 128,304 185.376,304 95.2,394.176 117.824,416.8 208,326.624 208,384 "
   id="polygon6"
   transform="matrix(0.75,0,0,0.75,-58.1,186.1)" /><polygon
   points="272,128 272,240 384,240 384,208 326.624,208 416.8,117.824 394.176,95.2 304,185.376 304,128 "
   id="polygon12"
   transform="matrix(0.75,0,0,0.75,186.1,-58.1)" />
<g
   id="g24">
</g>
<g
   id="g26">
</g>
<g
   id="g28">
</g>
<g
   id="g30">
</g>
<g
   id="g32">
</g>
<g
   id="g34">
</g>
<g
   id="g36">
</g>
<g
   id="g38">
</g>
<g
   id="g40">
</g>
<g
   id="g42">
</g>
<g
   id="g44">
</g>
<g
   id="g46">
</g>
<g
   id="g48">
</g>
<g
   id="g50">
</g>
<g
   id="g52">
</g>
<g
   id="g841"
   style="opacity:1;fill:#ff7f2a"
   transform="matrix(17.578125,0,0,17.578125,78.406975,80.82111)"><path
     style="color:#000000;font-style:normal;font-variant:normal;font-weight:normal;font-stretch:normal;font-size:medium;line-height:normal;font-family:sans-serif;font-variant-ligatures:normal;font-variant-position:normal;font-variant-caps:normal;font-variant-numeric:normal;font-variant-alternates:normal;font-variant-east-asian:normal;font-feature-settings:normal;font-variation-settings:normal;text-indent:0;text-align:start;text-decoration:none;text-decoration-line:none;text-decoration-style:solid;text-decoration-color:#000000;letter-spacing:normal;word-spacing:normal;text-transform:none;writing-mode:lr-tb;direction:ltr;text-orientation:mixed;dominant-baseline:auto;baseline-shift:baseline;text-anchor:start;white-space:normal;shape-padding:0;shape-margin:0;inline-size:0;clip-rule:nonzero;display:inline;overflow:visible;visibility:visible;isolation:auto;mix-blend-mode:normal;color-interpolation:sRGB;color-interpolation-filters:linearRGB;solid-color:#000000;solid-opacity:1;vector-effect:none;fill:#ff7f2a;fill-opacity:1;fill-rule:nonzero;stroke:none;stroke-width:0.7;stroke-linecap:butt;stroke-linejoin:miter;stroke-miterlimit:4;stroke-dasharray:none;stroke-dashoffset:0;stroke-opacity:1;color-rendering:auto;image-rendering:auto;shape-rendering:auto;text-rendering:auto;enable-background:accumulate;stop-color:#000000;stop-opacity:1"
     d="m 16.469,8.924 -2.414,2.413 c -0.156,0.156 -0.408,0.156 -0.564,0 -0.156,-0.155 -0.156,-0.408 0,-0.563 L 15.905,8.36 c 1.175,-1.175 1.175,-3.087 0,-4.262 -0.57,-0.569 -1.326,-0.883 -2.132,-0.883 -0.806,0 -1.562,0.313 -2.132,0.883 L 9.227,6.511 c -1.175,1.175 -1.175,3.087 0,4.263 0.288,0.288 0.624,0.511 0.997,0.662 0.204,0.083 0.303,0.315 0.22,0.52 -0.171,0.422 -0.643,0.17 -0.52,0.22 C 9.451,11.985 9.026,11.702 8.662,11.338 7.175,9.853 7.175,7.434 8.662,5.947 l 2.414,-2.413 c 0.72,-0.72 1.678,-1.117 2.696,-1.117 1.018,0 1.976,0.396 2.696,1.117 1.487,1.486 1.487,3.904 0.001,5.39 M 10.076,7.825 c -0.205,-0.083 -0.437,0.016 -0.52,0.22 -0.083,0.205 0.016,0.437 0.22,0.52 0.374,0.151 0.709,0.374 0.997,0.662 1.176,1.176 1.176,3.088 0,4.263 l -2.414,2.413 c -0.569,0.569 -1.326,0.883 -2.131,0.883 -0.805,0 -1.562,-0.313 -2.132,-0.883 -1.175,-1.175 -1.175,-3.087 0,-4.262 L 6.51,9.227 C 6.666,9.072 6.666,8.819 6.51,8.663 6.354,8.507 6.102,8.507 5.946,8.663 l -2.414,2.414 c -1.487,1.485 -1.487,3.904 0,5.391 0.72,0.72 1.678,1.116 2.696,1.116 1.018,0 1.976,-0.396 2.696,-1.116 l 2.414,-2.413 c 1.487,-1.486 1.487,-3.905 0,-5.392 C 10.974,8.298 10.55,8.017 10.076,7.825"
     id="path843" /><path
     style="color:#000000;font-style:normal;font-variant:normal;font-weight:normal;font-stretch:normal;font-size:medium;line-height:normal;font-family:sans-serif;font-variant-ligatures:normal;font-variant-position:normal;font-variant-caps:normal;font-variant-numeric:normal;font-variant-alternates:normal;font-variant-east-asian:normal;font-feature-settings:normal;font-variation-settings:normal;text-indent:0;text-align:start;text-decoration:none;text-decoration-line:none;text-decoration-style:solid;text-decoration-color:#000000;letter-spacing:normal;word-spacing:normal;text-transform:none;writing-mode:lr-tb;direction:ltr;text-orientation:mixed;dominant-baseline:auto;baseline-shift:baseline;text-anchor:start;white-space:normal;shape-padding:0;shape-margin:0;inline-size:0;clip-rule:nonzero;display:inline;overflow:visible;visibility:visible;isolation:auto;mix-blend-mode:normal;color-interpolation:sRGB;color-interpolation-filters:linearRGB;solid-color:#000000;solid-opacity:1;vector-effect:none;fill:#ff7f2a;fill-opacity:1;fill-rule:nonzero;stroke:none;stroke-width:0.7;stroke-linecap:butt;stroke-linejoin:miter;stroke-miterlimit:4;stroke-dasharray:none;stroke-dashoffset:0;stroke-opacity:1;color-rendering:auto;image-rendering:auto;shape-rendering:auto;text-rendering:auto;enable-background:accumulate;stop-color:#000000;stop-opacity:1"
     d="m 13.771484,2.0664062 c -1.108995,1e-7 -2.159081,0.4364252 -2.943359,1.2207032 L 8.4140625,5.6992188 c -1.6212013,1.6212012 -1.6214723,4.2674273 0,5.8867192 0.3540218,0.354021 0.7805617,0.610779 1.2324219,0.816406 -3.18e-5,2.9e-5 -0.00195,0.002 -0.00195,0.002 3.12e-5,3.4e-5 0.029251,0.02926 0.029297,0.0293 1.836e-4,1.6e-4 0.044554,0.03311 0.054687,0.03906 0.010134,0.006 0.015879,0.0089 0.021484,0.01172 0.011211,0.0056 0.018171,0.0087 0.025391,0.01172 0.01444,0.0061 0.026572,0.01075 0.041016,0.01563 0.057775,0.0195 0.1392984,0.03952 0.2460936,0.04297 0.106795,0.0034 0.242709,-0.01104 0.378906,-0.08594 0.136198,-0.0749 0.257822,-0.212182 0.326172,-0.380859 0.153805,-0.37988 -0.03384,-0.822658 -0.412109,-0.976563 -0.329668,-0.133458 -0.6252276,-0.328352 -0.8808594,-0.583984 -1.0409313,-1.0418175 -1.0407601,-2.7287715 0,-3.7695315 L 11.888672,4.3457031 c 0.505885,-0.5058848 1.169378,-0.78125 1.884766,-0.78125 0.715098,0 1.378712,0.2760844 1.884765,0.78125 1.04076,1.0407601 1.04076,2.7268181 0,3.7675781 l -2.414062,2.4140628 c -0.288944,0.288855 -0.288944,0.767785 0,1.05664 0.289262,0.289263 0.769331,0.289263 1.058593,0 l 2.414063,-2.412109 c 1.620236,-1.6202361 1.619328,-4.2645747 -0.002,-5.8847656 -0.784411,-0.7855002 -1.834593,-1.2207031 -2.94336,-1.2207032 z m 0,0.7011719 c 0.927234,0 1.79363,0.357172 2.449219,1.0136719 1.352719,1.3518091 1.351764,3.5427673 0,4.8945312 l -2.414062,2.4140628 c -0.02274,0.02274 -0.04562,0.02274 -0.06836,0 v -0.002 c -0.02092,-0.02078 -0.02092,-0.04563 0,-0.06641 l 2.414063,-2.4140621 c 1.30924,-1.30924 1.30924,-3.4485726 0,-4.7578125 -0.633947,-0.6328344 -1.482005,-0.984375 -2.378906,-0.984375 -0.896613,0 -1.746745,0.3502598 -2.38086,0.984375 L 8.9804688,6.2636719 c -1.30924,1.3092399 -1.3110219,3.4476297 -0.00195,4.7578121 h 0.00195 c 0.3203681,0.320369 0.6949954,0.569739 1.1113282,0.738282 0.02973,0.01209 0.03954,0.03433 0.02734,0.06445 -0.01715,0.04232 -0.01712,0.03315 -0.01367,0.03125 0.0034,-0.0019 -0.0023,5.55e-4 -0.01953,0 -0.01272,-4.11e-4 -0.02459,-0.0038 -0.0332,-0.0059 -4.91e-4,-1.16e-4 -0.0015,1.06e-4 -0.002,0 -0.4275604,-0.173283 -0.8098532,-0.428994 -1.1406248,-0.759765 -1.3525276,-1.3507088 -1.3527987,-3.5417328 0,-4.8945315 L 11.324219,3.78125 C 11.979941,3.125528 12.84448,2.7675781 13.771484,2.7675781 Z M 10.207031,7.5 C 9.827152,7.3461952 9.3863264,7.5357911 9.2324219,7.9140625 c -0.1538048,0.3798793 0.033838,0.8207048 0.4121093,0.9746094 0.3303527,0.1333776 0.6249408,0.3300192 0.8808598,0.5859375 1.041874,1.0418746 1.041703,2.7267606 0,3.7675786 L 8.1113281,15.65625 c -0.5047721,0.504772 -1.168827,0.779297 -1.8828125,0.779297 -0.7142753,0 -1.3790255,-0.273557 -1.8847656,-0.779297 -1.04076,-1.04076 -1.04076,-2.726818 0,-3.767578 L 6.7558594,9.4746094 c 0.2910839,-0.289218 0.2917443,-0.7688025 0.00195,-1.0585938 -0.2892624,-0.2892624 -0.7693313,-0.2892624 -1.0585937,0 L 3.2851562,10.830078 c -1.6214723,1.619292 -1.6212012,4.263564 0,5.884766 0.7843926,0.784392 1.8345932,1.21875 2.9433594,1.21875 1.1087662,0 2.1589669,-0.434358 2.9433594,-1.21875 l 2.414063,-2.41211 c 1.621336,-1.620246 1.621201,-4.265517 0,-5.8867184 C 11.189399,8.0183875 10.723853,7.7093454 10.207031,7.5 Z M 9.9453125,8.1484375 c 0.4311785,0.1746546 0.8130695,0.4293468 1.1445315,0.7617187 1.352798,1.3527988 1.352663,3.5447308 0,4.8964848 l -2.4140628,2.414062 c -0.6556074,0.655608 -1.5200318,1.013672 -2.4472656,1.013672 -0.9272338,0 -1.7936113,-0.358064 -2.4492187,-1.013672 -1.3527987,-1.352799 -1.3525277,-3.545776 0,-4.896484 L 6.1933594,8.9101562 c 0.022737,-0.022737 0.045622,-0.022737 0.068359,0 0.022209,0.022209 0.022869,0.047577 0.00195,0.068359 L 3.8476562,11.392578 c -1.3092399,1.30924 -1.3092399,3.448573 0,4.757813 0.6342599,0.63426 1.4851348,0.986328 2.3808594,0.986328 0.8954609,0 1.7438499,-0.353839 2.3769532,-0.986328 l 2.4140622,-2.41211 c 1.310297,-1.309183 1.310126,-3.447686 0,-4.7578122 -0.319692,-0.3196924 -0.69429,-0.5716186 -1.1113279,-0.7402344 -0.028965,-0.011785 -0.038119,-0.033549 -0.027344,-0.0625 0.012095,-0.029729 0.034332,-0.039539 0.064453,-0.027344 z m 0.1093755,3.7070315 c 0.0024,0.0011 0.0037,-1.21e-4 0.0078,0.002 0.0043,0.0022 0.01023,0.0063 0.01953,0.01172 0.0093,0.0055 0.05292,0.03727 0.05274,0.03711 -4.6e-5,-4e-5 0.02933,0.02933 0.0293,0.0293 -2.6e-5,-3e-5 -0.1682258,0.152102 -0.2226558,0.201172 z m -0.1445318,0.359375 c 0.00767,0.06825 0.033164,0.302738 0.033203,0.302734 8.89e-5,-10e-6 -0.07437,-1.5e-5 -0.074219,0 3.018e-4,3.1e-5 -0.038403,-0.0057 -0.046875,-0.0078 -0.00847,-0.0021 -0.01382,-0.0047 -0.017578,-0.0059 -0.015033,-0.0046 -0.013738,-0.0047 -0.011719,-0.0039 z"
     id="path845" /></g></svg>
